<?xml version="1.0" encoding="utf-8"?>
<!-- Generator: Adobe Illustrator 25.4.1, SVG Export Plug-In . SVG Version: 6.00 Build 0)  -->
<svg version="1.0" id="Capa_1" xmlns="http://www.w3.org/2000/svg" xmlns:xlink="http://www.w3.org/1999/xlink" x="0px" y="0px"
	 viewBox="0 0 193 26" enable-background="new 0 0 193 26" xml:space="preserve">
<g>
	<g>
		<path fill="#371640" d="M113.2,23.6c1.1-1.5,0.3-2.6-0.5-3.5l1.5,0.3l-0.1-0.2c-0.2-0.5-0.5-0.9-0.9-1.2c-1.4-1-3-1-4.5-1
			c-1.2,0-2.5,0.1-3.6-0.4l-0.1,0.2c0.7,0.4,1.5,0.6,2.3,0.9c0.9,0.3,1.8,0.6,2.7,1.1c0.7,0.4,0.9,1.6,0.6,2.2
			c-0.4,0.7-0.9,0.8-1.9,0.4l-0.2-0.1l0,0.2c0,0.7,0.3,1.3,0.7,1.8c0.2,0.2,0.5,0.4,0.9,0.5C110.9,25.1,112.5,24.6,113.2,23.6z"/>
		<path fill="#371640" d="M106,13.6c1.3-0.8,1.7-2.1,2.1-3.4c0.4-1.2,0.8-2.4,1.9-3.3l0.3-0.2l-0.4,0c-1.7-0.1-3.2,0.9-4.2,3
			l-0.3-1.6l-0.2,0.1c-0.9,0.7-0.9,1.6-0.7,2.5c0.2,1.5-0.3,2.2-1.9,2.7l-0.3,0.1l0.3,0.1C104,14.2,105,14.2,106,13.6z"/>
		<path fill="#371640" d="M112.1,17.5c1.3-0.4,2.6-0.7,3.9-1c0.6-0.1,1.2-0.3,1.7-0.4l0.2-0.1l-1-0.8c0.2-0.1,0.5-0.2,0.7-0.3
			c0.7-0.3,1.4-0.6,2-0.9c0.7-0.3,1.3-0.7,2-1.1c0.3-0.2,0.7-0.4,1-0.6l0.3-0.2l-1.9-0.3c3.7-2.8,5.6-7.5,4.1-10.4l-0.1-0.3
			l-0.1,0.3c-0.5,1.3-1.7,2-2.7,2.5c-0.8,0.4-1.6,0.9-2.4,1.3c-0.3,0.1-0.5,0.3-0.8,0.4L119.1,3l-0.2,0.1c-0.3,0.2-0.6,0.4-0.8,0.6
			c-0.5,0.4-1,0.7-1.5,1c-2.8,1.5-3.6,3.8-4.1,6.4c-0.8-1.4-0.6-2.7,0.4-4.2l0.3-0.5l-0.6,0.3c-0.5,0.3-0.9,0.5-1.2,0.9
			c-0.3,0.5-0.6,1-0.9,1.5c-0.1,0.2-0.3,0.5-0.4,0.7c-0.2,0.4-0.5,0.8-0.7,1.2c-0.5,0.9-1,1.8-1.7,2.5c-0.9,0.9-2,1.4-3.1,1.4
			c-1.2,0-2.3-0.6-3.1-1.5c-1.6-1.9-2.7-4.9-1.3-7.6c0.1-0.2,0.6-1,1.3-0.7c0.1,0.1,0.3,0.3,0.4,0.6c0.1,0.2,0.1,0.4,0.2,0.6
			l0.1,0.2l0.1-0.2c0.1-0.1,0.1-0.2,0.2-0.3c0.2-0.2,0.4-0.5,0.4-0.8c0-0.4-0.4-1.1-0.8-1.2c-0.6-0.1-1.3,0-1.7,0.3
			c-0.8,0.5-1.3,1.5-1.5,2.8c-0.4,2.9,0.5,5.5,2.6,7.6c0.4,0.4,0.9,0.8,1.4,1.2C105.4,18.1,108.4,18.5,112.1,17.5z M122.8,6.9
			c-0.6,1.8-2.7,4-5.9,5.9c-3.4,2.1-8,3.8-11.1,3.4C112.4,15.2,118,12.1,122.8,6.9z"/>
		<circle fill="#371640" cx="102.8" cy="11.9" r="1.1"/>
		<circle fill="#371640" cx="103.4" cy="10.1" r="0.6"/>
		<path fill="#371640" d="M102.4,9.8c-0.2-0.2-0.6-0.2-0.8,0c-0.2,0.2-0.2,0.6,0,0.8s0.6,0.2,0.8,0S102.6,10,102.4,9.8z"/>
	</g>
	<g>
		<path fill="#371640" d="M79.8,23.6c-1.1-1.5-0.3-2.6,0.5-3.5l-1.5,0.3l0.1-0.2c0.2-0.5,0.5-0.9,0.9-1.2c1.4-1,3-1,4.5-1
			c1.2,0,2.5,0.1,3.6-0.4l0.1,0.2c-0.7,0.4-1.5,0.6-2.3,0.9c-0.9,0.3-1.8,0.6-2.7,1.1c-0.7,0.4-0.9,1.6-0.6,2.2
			c0.4,0.7,0.9,0.8,1.9,0.4l0.2-0.1l0,0.2c0,0.7-0.3,1.3-0.7,1.8c-0.2,0.2-0.5,0.4-0.9,0.5C82.1,25.1,80.5,24.6,79.8,23.6z"/>
		<path fill="#371640" d="M87,13.6c-1.3-0.8-1.7-2.1-2.1-3.4C84.4,9,84,7.7,82.9,6.9l-0.3-0.2l0.4,0c1.7-0.1,3.2,0.9,4.2,3l0.3-1.6
			l0.2,0.1c0.9,0.7,0.9,1.6,0.7,2.5c-0.2,1.5,0.3,2.2,1.9,2.7l0.3,0.1l-0.3,0.1C89,14.2,88,14.2,87,13.6z"/>
		<path fill="#371640" d="M90.1,16.2c0.5-0.4,1-0.8,1.4-1.2c2.1-2.1,3-4.6,2.6-7.6c-0.2-1.3-0.7-2.3-1.5-2.8
			c-0.5-0.3-1.2-0.4-1.7-0.3c-0.4,0.1-0.8,0.8-0.8,1.2c0,0.3,0.2,0.5,0.4,0.8c0.1,0.1,0.2,0.2,0.2,0.3l0.1,0.2l0.1-0.2
			c0.1-0.2,0.2-0.4,0.2-0.6c0.1-0.3,0.2-0.6,0.4-0.6c0.7-0.3,1.2,0.4,1.3,0.7c1.4,2.7,0.4,5.8-1.3,7.6c-0.9,1-2,1.5-3.1,1.5
			c-1.1,0-2.2-0.5-3.1-1.4c-0.7-0.7-1.2-1.7-1.7-2.5c-0.2-0.4-0.4-0.8-0.7-1.2c-0.1-0.2-0.3-0.5-0.4-0.7c-0.3-0.5-0.6-1-0.9-1.5
			c-0.3-0.4-0.8-0.7-1.2-0.9l-0.6-0.3L80.2,7c1,1.4,1.1,2.7,0.4,4.2c-0.5-2.7-1.3-5-4.1-6.4c-0.5-0.3-1-0.6-1.5-1
			c-0.3-0.2-0.5-0.4-0.8-0.6L73.9,3l-0.1,2.5c-0.3-0.1-0.5-0.3-0.8-0.4c-0.8-0.4-1.6-0.9-2.4-1.3c-1-0.5-2.2-1.2-2.7-2.5l-0.1-0.3
			l-0.1,0.3c-1.5,2.9,0.4,7.6,4.1,10.4L69.9,12l0.3,0.2c0.4,0.2,0.7,0.4,1,0.6c0.7,0.4,1.4,0.8,2,1.1c0.7,0.3,1.4,0.6,2,0.9
			c0.2,0.1,0.5,0.2,0.7,0.3l-1,0.8l0.2,0.1c0.6,0.1,1.1,0.3,1.7,0.4c1.3,0.3,2.6,0.6,3.9,1C84.6,18.5,87.6,18.1,90.1,16.2z
			 M87.2,16.2c-3.1,0.5-7.7-1.3-11.1-3.4c-3.1-1.9-5.3-4.1-5.9-5.9C75,12.1,80.6,15.2,87.2,16.2z"/>
		<circle fill="#371640" cx="90.2" cy="11.9" r="1.1"/>
		<circle fill="#371640" cx="89.6" cy="10.1" r="0.6"/>
		<path fill="#371640" d="M90.6,9.8c0.2-0.2,0.6-0.2,0.8,0s0.2,0.6,0,0.8s-0.6,0.2-0.8,0S90.4,10,90.6,9.8z"/>
	</g>
</g>
<g>
	<path fill="#371640" d="M124.6,13c22.8,0,45.6,0,68.4,0"/>
	<path fill="#371640" d="M159.5,11.8c-5.6-0.1-11.2-0.2-16.7-0.2l-14.7-0.1l-1.2,0c-1,1.2-2.5,2.3-3.7,3l2.9,0l16.7-0.1
		c5.6-0.1,11.2-0.1,16.7-0.2c11.2-0.2,22.3-0.5,33.5-1.2C181.8,12.4,170.7,12,159.5,11.8z"/>
</g>
<g>
	<path fill="#371640" d="M68.4,13C45.6,13,22.8,13,0,13"/>
	<path fill="#371640" d="M33.5,11.8c5.6-0.1,11.2-0.2,16.7-0.2l14.7-0.1l1.2,0c1,1.2,2.5,2.3,3.7,3l-2.9,0l-16.7-0.1
		c-5.6-0.1-11.2-0.1-16.7-0.2C22.3,14,11.2,13.6,0,13C11.2,12.4,22.3,12,33.5,11.8z"/>
</g>
</svg>
