<?xml version="1.0" encoding="utf-8"?>
<!-- Generator: Adobe Illustrator 25.4.1, SVG Export Plug-In . SVG Version: 6.00 Build 0)  -->
<svg version="1.0" id="Capa_1" xmlns="http://www.w3.org/2000/svg" xmlns:xlink="http://www.w3.org/1999/xlink" x="0px" y="0px"
	 viewBox="0 0 193 26" enable-background="new 0 0 193 26" xml:space="preserve">
<g>
	<path fill="#371640" d="M179.3,23.6c1.1-1.5,0.3-2.6-0.5-3.5l1.5,0.3l-0.1-0.2c-0.2-0.5-0.5-0.9-0.9-1.2c-1.4-1-3-1-4.5-1
		c-1.2,0-2.5,0.1-3.6-0.4l-0.1,0.2c0.7,0.4,1.5,0.6,2.3,0.9c0.9,0.3,1.8,0.6,2.7,1.1c0.7,0.4,0.9,1.6,0.6,2.2
		c-0.4,0.7-0.9,0.8-1.9,0.4l-0.2-0.1l0,0.2c0,0.7,0.3,1.3,0.7,1.8c0.2,0.2,0.5,0.4,0.9,0.5C177,25.1,178.7,24.6,179.3,23.6z"/>
	<path fill="#371640" d="M172.2,13.6c1.3-0.8,1.7-2.1,2.1-3.4c0.4-1.2,0.8-2.4,1.9-3.3l0.3-0.2l-0.4,0c-1.7-0.1-3.2,0.9-4.2,3
		l-0.3-1.6l-0.2,0.1c-0.9,0.7-0.9,1.6-0.7,2.5c0.2,1.5-0.3,2.2-1.9,2.7l-0.3,0.1l0.3,0.1C170.2,14.2,171.2,14.2,172.2,13.6z"/>
	<path fill="#371640" d="M178.2,17.5c1.3-0.4,2.6-0.7,3.9-1c0.6-0.1,1.2-0.3,1.7-0.4l0.2-0.1l-1-0.8c0.2-0.1,0.5-0.2,0.7-0.3
		c0.7-0.3,1.4-0.6,2-0.9c0.7-0.3,1.3-0.7,2-1.1c0.3-0.2,0.7-0.4,1-0.6l0.3-0.2l-1.9-0.3c3.7-2.8,5.6-7.5,4.1-10.4l-0.1-0.3l-0.1,0.3
		c-0.5,1.3-1.7,2-2.7,2.5c-0.8,0.4-1.6,0.9-2.4,1.3c-0.3,0.1-0.5,0.3-0.8,0.4L185.3,3l-0.2,0.1c-0.3,0.2-0.6,0.4-0.8,0.6
		c-0.5,0.4-1,0.7-1.5,1c-2.8,1.5-3.6,3.8-4.1,6.4C177.9,9.7,178,8.4,179,7l0.3-0.5l-0.6,0.3c-0.5,0.3-0.9,0.5-1.2,0.9
		c-0.3,0.5-0.6,1-0.9,1.5c-0.1,0.2-0.3,0.5-0.4,0.7c-0.2,0.4-0.5,0.8-0.7,1.2c-0.5,0.9-1,1.8-1.7,2.5c-0.9,0.9-2,1.4-3.1,1.4
		c-1.2,0-2.3-0.6-3.1-1.5c-1.6-1.9-2.7-4.9-1.3-7.6c0.1-0.2,0.6-1,1.3-0.7c0.1,0.1,0.3,0.3,0.4,0.6c0.1,0.2,0.1,0.4,0.2,0.6l0.1,0.2
		l0.1-0.2c0.1-0.1,0.1-0.2,0.2-0.3c0.2-0.2,0.4-0.5,0.4-0.8c0-0.4-0.4-1.1-0.8-1.2c-0.6-0.1-1.3,0-1.7,0.3c-0.8,0.5-1.3,1.5-1.5,2.8
		c-0.4,2.9,0.5,5.5,2.6,7.6c0.4,0.4,0.9,0.8,1.4,1.2C171.6,18.1,174.6,18.5,178.2,17.5z M188.9,6.9c-0.6,1.8-2.7,4-5.9,5.9
		c-3.4,2.1-8,3.8-11.1,3.4C178.6,15.2,184.1,12.1,188.9,6.9z"/>
	<circle fill="#371640" cx="168.9" cy="11.9" r="1.1"/>
	<circle fill="#371640" cx="169.6" cy="10.1" r="0.6"/>
	<path fill="#371640" d="M168.5,9.8c-0.2-0.2-0.6-0.2-0.8,0c-0.2,0.2-0.2,0.6,0,0.8s0.6,0.2,0.8,0S168.8,10,168.5,9.8z"/>
</g>
<g>
	<path fill="#371640" d="M13.7,23.6c-1.1-1.5-0.3-2.6,0.5-3.5l-1.5,0.3l0.1-0.2c0.2-0.5,0.5-0.9,0.9-1.2c1.4-1,3-1,4.5-1
		c1.2,0,2.5,0.1,3.6-0.4l0.1,0.2c-0.7,0.4-1.5,0.6-2.3,0.9c-0.9,0.3-1.8,0.6-2.7,1.1c-0.7,0.4-0.9,1.6-0.6,2.2
		c0.4,0.7,0.9,0.8,1.9,0.4l0.2-0.1l0,0.2c0,0.7-0.3,1.3-0.7,1.8c-0.2,0.2-0.5,0.4-0.9,0.5C16,25.1,14.3,24.6,13.7,23.6z"/>
	<path fill="#371640" d="M20.8,13.6c-1.3-0.8-1.7-2.1-2.1-3.4c-0.4-1.2-0.8-2.4-1.9-3.3l-0.3-0.2l0.4,0c1.7-0.1,3.2,0.9,4.2,3
		l0.3-1.6l0.2,0.1c0.9,0.7,0.9,1.6,0.7,2.5C22,12.3,22.5,13,24,13.5l0.3,0.1l-0.3,0.1C22.8,14.2,21.8,14.2,20.8,13.6z"/>
	<path fill="#371640" d="M23.9,16.2c0.5-0.4,1-0.8,1.4-1.2c2.1-2.1,3-4.6,2.6-7.6c-0.2-1.3-0.7-2.3-1.5-2.8
		c-0.5-0.3-1.2-0.4-1.7-0.3C24.4,4.4,24,5,23.9,5.5c0,0.3,0.2,0.5,0.4,0.8c0.1,0.1,0.2,0.2,0.2,0.3l0.1,0.2l0.1-0.2
		c0.1-0.2,0.2-0.4,0.2-0.6c0.1-0.3,0.2-0.6,0.4-0.6c0.7-0.3,1.2,0.4,1.3,0.7c1.4,2.7,0.4,5.8-1.3,7.6c-0.9,1-2,1.5-3.1,1.5
		c-1.1,0-2.2-0.5-3.1-1.4C18.5,13,18,12,17.5,11.2c-0.2-0.4-0.4-0.8-0.7-1.2c-0.1-0.2-0.3-0.5-0.4-0.7c-0.3-0.5-0.6-1-0.9-1.5
		c-0.3-0.4-0.8-0.7-1.2-0.9l-0.6-0.3L14,7c1,1.4,1.1,2.7,0.4,4.2c-0.5-2.7-1.3-5-4.1-6.4c-0.5-0.3-1-0.6-1.5-1
		C8.5,3.5,8.2,3.4,7.9,3.2L7.7,3L7.6,5.6C7.3,5.4,7.1,5.3,6.8,5.1C6,4.7,5.3,4.3,4.4,3.9c-1-0.5-2.2-1.2-2.7-2.5L1.6,1.1L1.5,1.3
		C0,4.2,1.9,9,5.6,11.8L3.7,12l0.3,0.2c0.4,0.2,0.7,0.4,1,0.6c0.7,0.4,1.4,0.8,2,1.1c0.7,0.3,1.4,0.6,2,0.9c0.2,0.1,0.5,0.2,0.7,0.3
		l-1,0.8l0.2,0.1c0.6,0.1,1.1,0.3,1.7,0.4c1.3,0.3,2.6,0.6,3.9,1C18.4,18.5,21.4,18.1,23.9,16.2z M21,16.2
		c-3.1,0.5-7.7-1.3-11.1-3.4c-3.1-1.9-5.3-4.1-5.9-5.9C8.9,12.1,14.4,15.2,21,16.2z"/>
	<circle fill="#371640" cx="24.1" cy="11.9" r="1.1"/>
	<circle fill="#371640" cx="23.4" cy="10.1" r="0.6"/>
	<path fill="#371640" d="M24.5,9.8c0.2-0.2,0.6-0.2,0.8,0c0.2,0.2,0.2,0.6,0,0.8c-0.2,0.2-0.6,0.2-0.8,0C24.2,10.4,24.2,10,24.5,9.8
		z"/>
</g>
<g>
	<line fill="#371640" x1="30.5" y1="13.1" x2="162.5" y2="13.1"/>
	<path fill="#371640" d="M30.5,13.1c11-0.6,22-0.9,33-1.2c5.5-0.1,11-0.2,16.5-0.3l16.5-0.1l16.5,0.1c5.5,0.1,11,0.1,16.5,0.2
		c11,0.2,22,0.5,33,1.2c-11,0.6-22,1-33,1.2c-5.5,0.1-11,0.2-16.5,0.2l-16.5,0.1L80,14.5c-5.5-0.1-11-0.1-16.5-0.3
		C52.5,14,41.5,13.7,30.5,13.1z"/>
</g>
</svg>
